<svg width="24" height="24" viewBox="0 0 24 24" fill="none" xmlns="http://www.w3.org/2000/svg">
<path fill-rule="evenodd" clip-rule="evenodd" d="M4.636 6.04492C4.28568 6.04492 4 6.32981 4 6.68192V17.3179C4 17.6702 4.28565 17.9543 4.63489 17.9539L4.636 17.9539L19.364 17.9539C19.7151 17.9539 20 17.6692 20 17.3179V6.68192C20 6.33021 19.7147 6.04492 19.363 6.04492H4.636ZM2 6.68192C2 5.22604 3.18032 4.04492 4.636 4.04492H19.363C20.8193 4.04492 22 5.22564 22 6.68192V17.3179C22 18.7746 20.8189 19.9539 19.364 19.9539L4.63711 19.9539C4.63674 19.9539 4.63637 19.9539 4.636 19.9539C3.17975 19.9549 2 18.7732 2 17.3179V6.68192Z" fill="#F2ECE4"/>
<path fill-rule="evenodd" clip-rule="evenodd" d="M21.6901 5.4802C22.0108 5.92983 21.9063 6.55431 21.4566 6.87501L13.7186 12.394C12.6747 13.138 11.2736 13.1366 10.2313 12.3913L2.53723 6.88824C2.08801 6.56695 1.98431 5.94233 2.3056 5.49312C2.6269 5.04391 3.25151 4.94021 3.70072 5.2615L11.3947 10.7645C11.7424 11.0131 12.2096 11.0135 12.5576 10.7655L20.2953 5.24673C20.7449 4.92604 21.3694 5.03056 21.6901 5.4802Z" fill="#F2ECE4"/>
</svg>
